%FSLAX34Y34*%
%MOMM*%
%LNCOPPER_BOTTOM*%
G71*
G01*
%ADD10C, 2.000*%
%ADD11C, 2.000*%
%ADD12C, 3.400*%
%ADD13C, 1.600*%
%ADD14C, 1.400*%
%LPD*%
X139700Y133350D02*
G54D10*
D03*
X139700Y165100D02*
G54D10*
D03*
X203200Y165100D02*
G54D10*
D03*
X215900Y203200D02*
G54D10*
D03*
X114300Y203200D02*
G54D10*
D03*
X114300Y165100D02*
G54D10*
D03*
X139700Y31750D02*
G54D10*
D03*
G54D11*
X167800Y31750D02*
X187800Y31750D01*
G54D11*
X167800Y57150D02*
X187800Y57150D01*
G54D11*
X167800Y82550D02*
X187800Y82550D01*
G54D11*
X88900Y60800D02*
X88900Y40800D01*
G54D11*
X63500Y60800D02*
X63500Y40800D01*
G54D11*
X38100Y60800D02*
X38100Y40800D01*
X215900Y38100D02*
G54D10*
D03*
X215900Y69850D02*
G54D10*
D03*
X317500Y38100D02*
G54D10*
D03*
X317500Y69850D02*
G54D10*
D03*
X355600Y25400D02*
G54D10*
D03*
X355600Y50800D02*
G54D10*
D03*
X355600Y82550D02*
G54D10*
D03*
X355600Y114300D02*
G54D10*
D03*
X406400Y25400D02*
G54D10*
D03*
X431800Y25400D02*
G54D10*
D03*
X431800Y165100D02*
G54D10*
D03*
X457200Y25400D02*
G54D10*
D03*
X457200Y82550D02*
G54D10*
D03*
X457200Y114300D02*
G54D10*
D03*
G54D11*
X498000Y152400D02*
X518000Y152400D01*
G54D11*
X498000Y177800D02*
X518000Y177800D01*
X622300Y25400D02*
G54D10*
D03*
X622300Y127000D02*
G54D10*
D03*
X622300Y152400D02*
G54D10*
D03*
X584200Y139700D02*
G54D10*
D03*
X584200Y241300D02*
G54D10*
D03*
X533400Y241300D02*
G54D10*
D03*
G54D11*
X498000Y203200D02*
X518000Y203200D01*
X469900Y203200D02*
G54D10*
D03*
X622300Y254000D02*
G54D10*
D03*
X431800Y241300D02*
G54D10*
D03*
X333375Y165100D02*
G54D10*
D03*
X368300Y203200D02*
G54D10*
D03*
X285750Y139700D02*
G54D10*
D03*
X285750Y241300D02*
G54D10*
D03*
X241300Y114300D02*
G54D10*
D03*
X241300Y165100D02*
G54D10*
D03*
X241300Y244475D02*
G54D12*
D03*
X190500Y247650D02*
G54D12*
D03*
X203200Y114300D02*
G54D10*
D03*
X577850Y38100D02*
G54D10*
D03*
X527050Y38100D02*
G54D10*
D03*
X663575Y25400D02*
G54D12*
D03*
X663575Y254000D02*
G54D12*
D03*
X323850Y228600D02*
G54D12*
D03*
X76200Y203200D02*
G54D12*
D03*
X38100Y247650D02*
G54D12*
D03*
X25400Y88900D02*
G54D12*
D03*
G54D13*
X88900Y47625D02*
X123825Y82550D01*
X177800Y82550D01*
X171450Y82550D01*
X171450Y133350D01*
X177800Y139700D01*
X285750Y139700D01*
X241300Y139700D01*
X241300Y165100D01*
G54D13*
X203200Y168275D02*
X203200Y190500D01*
X215900Y203200D01*
G54D13*
X215900Y38100D02*
X215900Y69850D01*
X215900Y114300D01*
X203200Y114300D01*
X241300Y114300D01*
X301625Y114300D01*
X327025Y139700D01*
X368300Y139700D01*
X419100Y190500D01*
X447675Y190500D01*
X485775Y152400D01*
X504825Y152400D01*
G54D13*
X177800Y57150D02*
X215900Y57150D01*
G54D13*
X139700Y133350D02*
X139700Y165100D01*
G54D13*
X457200Y25400D02*
X457200Y82550D01*
X457200Y114300D01*
G54D13*
X622300Y127000D02*
X622300Y152400D01*
G54D13*
X584200Y139700D02*
X622300Y139700D01*
G54D13*
X333375Y165100D02*
X323850Y174625D01*
X323850Y228600D01*
X336550Y241300D01*
X431800Y241300D01*
G54D13*
X355600Y50800D02*
X342900Y50800D01*
X330200Y66675D01*
X320675Y82550D01*
X355600Y114300D01*
X381000Y114300D01*
X431800Y165100D01*
G54D13*
X469900Y203200D02*
X508000Y203200D01*
G54D13*
X406400Y25400D02*
X431800Y25400D01*
G54D13*
X76200Y203200D02*
X114300Y203200D01*
G54D13*
X139700Y31750D02*
X177800Y31750D01*
G54D13*
X25400Y88900D02*
X25400Y63500D01*
X38100Y50800D01*
G54D13*
X663575Y25400D02*
X622300Y25400D01*
G54D13*
X663575Y254000D02*
X622300Y254000D01*
G54D13*
X533400Y241300D02*
X584200Y241300D01*
X584200Y212725D01*
X549275Y177800D01*
X508000Y177800D01*
G54D13*
X190500Y247650D02*
X241300Y244475D01*
X285750Y241300D01*
G54D13*
X114300Y168275D02*
X114300Y203200D01*
G54D13*
X114300Y165100D02*
X114300Y133350D01*
X63500Y82550D01*
X63500Y50800D01*
G54D13*
X38100Y247650D02*
X38100Y241300D01*
X76200Y203200D01*
G54D13*
X317500Y38100D02*
X330200Y25400D01*
X355600Y25400D01*
X406400Y25400D01*
X406400Y82550D01*
X355600Y82550D01*
G54D13*
X577850Y38100D02*
X577850Y69850D01*
X552450Y95250D01*
X552450Y177800D01*
G54D13*
X527050Y38100D02*
X527050Y79375D01*
X457200Y149225D01*
X454025Y149225D01*
X387350Y82550D01*
G54D13*
X38100Y50800D02*
X38100Y15875D01*
X139700Y15875D01*
X139700Y31750D01*
G54D13*
X317500Y38100D02*
X314325Y38100D01*
X285750Y9525D01*
X177800Y9525D01*
X177800Y31750D01*
G54D14*
X368300Y203200D02*
X390525Y203200D01*
X403225Y212725D01*
X444500Y212725D01*
X466725Y234950D01*
X466725Y266700D01*
X311150Y266700D01*
X285750Y241300D01*
M02*
