; Drill file
; Format: 2.4 (00.0000)
M48
INCH
T01C0.0394
T02C0.0551
T03C0.1181
%
G05
G90
T01
X001500Y002000
X002500Y002000
X003500Y002000
X005500Y001250
X007000Y001250
X007000Y002250
X007000Y003250
X008500Y002750
X008500Y001500
X008000Y004500
X009500Y004500
X009500Y006500
X008000Y006500
X008500Y008000
X011250Y009500
X013120Y006500
X014500Y008000
X017000Y006500
X018500Y008000
X020000Y008000
X020000Y007000
X020000Y006000
X018000Y004500
X018000Y003250
X018000Y001000
X017000Y001000
X016000Y001000
X014000Y001000
X014000Y002000
X014000Y003250
X014000Y004500
X012500Y002750
X012500Y001500
X011250Y005500
X005500Y005250
X005500Y006500
X004500Y006500
X004500Y008000
X017000Y009500
X021000Y009500
X023000Y009500
X024500Y010000
X024500Y006000
X024500Y005000
X023000Y005500
X022750Y001500
X024500Y001000
X020750Y001500
T02
X001000Y003500
X003000Y008000
X001500Y009750
X007500Y009750
X009500Y009630
X012750Y009000
X026120Y010000
X026120Y001000
T03
X002000Y005500
X026630Y005500
M30
