%FSLAX34Y34*%
%MOMM*%
%LNCOPPER_TOP*%
G71*
G01*
%ADD10C, 2.000*%
%ADD11C, 2.000*%
%ADD12C, 3.400*%
%LPD*%
X139700Y133350D02*
G54D10*
D03*
X139700Y165100D02*
G54D10*
D03*
X203200Y165100D02*
G54D10*
D03*
X215900Y203200D02*
G54D10*
D03*
X114300Y203200D02*
G54D10*
D03*
X114300Y165100D02*
G54D10*
D03*
X139700Y31750D02*
G54D10*
D03*
G54D11*
X167800Y31750D02*
X187800Y31750D01*
G54D11*
X167800Y57150D02*
X187800Y57150D01*
G54D11*
X167800Y82550D02*
X187800Y82550D01*
G54D11*
X88900Y60800D02*
X88900Y40800D01*
G54D11*
X63500Y60800D02*
X63500Y40800D01*
G54D11*
X38100Y60800D02*
X38100Y40800D01*
X215900Y38100D02*
G54D10*
D03*
X215900Y69850D02*
G54D10*
D03*
X317500Y38100D02*
G54D10*
D03*
X317500Y69850D02*
G54D10*
D03*
X355600Y25400D02*
G54D10*
D03*
X355600Y50800D02*
G54D10*
D03*
X355600Y82550D02*
G54D10*
D03*
X355600Y114300D02*
G54D10*
D03*
X406400Y25400D02*
G54D10*
D03*
X431800Y25400D02*
G54D10*
D03*
X431800Y165100D02*
G54D10*
D03*
X457200Y25400D02*
G54D10*
D03*
X457200Y82550D02*
G54D10*
D03*
X457200Y114300D02*
G54D10*
D03*
G54D11*
X498000Y152400D02*
X518000Y152400D01*
G54D11*
X498000Y177800D02*
X518000Y177800D01*
X622300Y25400D02*
G54D10*
D03*
X622300Y127000D02*
G54D10*
D03*
X622300Y152400D02*
G54D10*
D03*
X584200Y139700D02*
G54D10*
D03*
X584200Y241300D02*
G54D10*
D03*
X533400Y241300D02*
G54D10*
D03*
G54D11*
X498000Y203200D02*
X518000Y203200D01*
X469900Y203200D02*
G54D10*
D03*
X622300Y254000D02*
G54D10*
D03*
X431800Y241300D02*
G54D10*
D03*
X333375Y165100D02*
G54D10*
D03*
X368300Y203200D02*
G54D10*
D03*
X285750Y139700D02*
G54D10*
D03*
X285750Y241300D02*
G54D10*
D03*
X241300Y114300D02*
G54D10*
D03*
X241300Y165100D02*
G54D10*
D03*
X241300Y244475D02*
G54D12*
D03*
X190500Y247650D02*
G54D12*
D03*
X203200Y114300D02*
G54D10*
D03*
X577850Y38100D02*
G54D10*
D03*
X527050Y38100D02*
G54D10*
D03*
X663575Y25400D02*
G54D12*
D03*
X663575Y254000D02*
G54D12*
D03*
X323850Y228600D02*
G54D12*
D03*
X76200Y203200D02*
G54D12*
D03*
X38100Y247650D02*
G54D12*
D03*
X25400Y88900D02*
G54D12*
D03*
M02*
